<?xml version="1.0" standalone="no"?>
<!DOCTYPE svg PUBLIC "-//W3C//DTD SVG 20010904//EN"
 "http://www.w3.org/TR/2001/REC-SVG-20010904/DTD/svg10.dtd">
<svg version="1.0" xmlns="http://www.w3.org/2000/svg"
 width="240.000000pt" height="240.000000pt" viewBox="0 0 240.000000 240.000000"
 preserveAspectRatio="xMidYMid meet">
<metadata>
Created by potrace 1.14, written by Peter Selinger 2001-2017
</metadata>
<g transform="translate(0.000000,240.000000) scale(0.100000,-0.100000)"
fill="#000000" stroke="none">
<path d="M866 2350 c-122 -75 -381 -342 -436 -450 -46 -90 -64 -346 -35 -484
8 -37 24 -94 36 -125 12 -31 27 -83 34 -116 20 -93 52 -167 105 -250 27 -41
52 -75 55 -75 4 0 4 3 2 8 -17 30 -41 89 -52 129 -7 26 -14 38 -14 26 -1 -12
3 -33 9 -47 20 -53 -2 -24 -35 47 -45 95 -63 168 -77 306 -8 87 -8 129 2 183
26 147 102 334 191 469 53 81 244 270 331 329 37 25 68 49 68 53 1 26 -162
-98 -270 -205 -127 -126 -282 -368 -349 -543 -41 -107 -42 -106 -37 20 6 135
33 259 68 308 30 42 208 240 267 295 54 52 114 95 196 139 33 18 51 32 40 32
-11 0 -56 -23 -99 -49z m-375 -676 c-35 -97 -58 -210 -61 -304 l-2 -45 -15 55
c-19 71 -8 128 48 256 44 101 61 121 30 38z"/>
<path d="M1183 2368 c18 -15 37 -27 42 -27 6 0 23 13 39 29 16 17 25 30 20 30
-6 0 -15 -5 -22 -12 -7 -7 -12 -8 -12 -2 0 5 -5 2 -10 -6 -8 -13 -10 -13 -10
2 0 13 -8 17 -40 15 l-39 -1 32 -28z"/>
<path d="M1520 2395 c0 -3 16 -11 36 -20 43 -18 182 -117 251 -180 51 -45 102
-114 143 -193 12 -23 27 -45 33 -49 22 -13 -79 159 -121 207 -80 92 -342 272
-342 235z"/>
<path d="M926 2159 c-51 -59 -64 -86 -99 -204 -25 -84 -30 -125 -36 -255 l-7
-155 -8 80 c-5 45 -5 119 0 173 5 52 6 96 2 98 -3 2 -9 -26 -13 -63 -3 -38
-11 -86 -17 -108 -6 -22 -14 -76 -19 -120 -4 -44 -11 -91 -14 -105 l-7 -25 18
24 c12 17 17 40 16 80 -1 31 2 72 7 91 7 28 9 15 11 -65 1 -66 4 -93 10 -80 5
11 9 16 9 10 2 -19 21 20 21 43 0 15 4 21 11 16 9 -5 10 1 4 22 -31 104 23
392 92 492 20 29 43 56 51 61 8 4 13 14 10 21 -2 8 -19 -4 -42 -31z"/>
<path d="M1750 2087 c0 -5 18 -28 39 -50 22 -23 49 -53 60 -67 12 -14 20 -19
21 -12 0 8 -27 42 -60 75 -33 34 -60 58 -60 54z"/>
<path d="M721 1991 c-38 -41 -110 -157 -142 -226 -53 -118 -73 -208 -73 -340
-1 -137 12 -284 24 -266 10 17 19 -20 21 -79 1 -33 3 -39 8 -21 5 20 12 11 51
-65 24 -49 53 -98 63 -109 10 -11 35 -46 54 -78 20 -31 38 -55 41 -52 3 2 -30
56 -72 119 -80 118 -130 227 -140 306 -5 36 -2 55 18 95 l25 50 -6 -65 c-7
-73 -7 -72 -4 -120 1 -28 4 -32 11 -18 9 14 20 7 78 -50 37 -37 78 -77 92 -88
14 -12 30 -30 37 -40 12 -19 12 -19 6 0 -5 15 -3 18 10 13 30 -11 18 0 -25 26
-24 14 -76 59 -117 101 -83 86 -84 89 -35 191 14 30 24 63 22 72 -2 9 -15 -12
-31 -48 l-28 -64 7 60 c3 33 17 93 30 134 14 40 22 76 20 79 -3 3 -8 -4 -12
-14 -3 -10 -30 -71 -59 -134 -29 -63 -55 -122 -57 -130 -12 -34 -20 91 -15
218 4 111 9 150 29 207 42 117 124 267 177 323 13 12 21 26 19 31 -2 4 -14 -4
-27 -18z"/>
<path d="M1210 1965 c0 -6 12 -44 26 -85 37 -112 54 -201 64 -334 5 -65 13
-123 19 -129 13 -13 7 96 -14 244 -13 92 -68 284 -86 304 -6 6 -9 6 -9 0z"/>
<path d="M1991 1935 c0 -5 6 -21 14 -35 8 -14 14 -20 14 -15 0 6 -6 21 -14 35
-8 14 -14 21 -14 15z"/>
<path d="M2020 1865 c0 -5 5 -17 10 -25 5 -8 10 -10 10 -5 0 6 -5 17 -10 25
-5 8 -10 11 -10 5z"/>
<path d="M916 1803 c-9 -33 -16 -218 -7 -198 7 17 10 13 25 -25 9 -25 14 -34
11 -20 -15 71 -25 188 -20 222 7 38 1 53 -9 21z"/>
<path d="M2041 1815 c1 -19 18 -51 18 -35 0 8 -4 22 -9 30 -5 8 -9 11 -9 5z"/>
<path d="M1061 1723 c51 -179 108 -356 109 -338 1 18 2 17 15 -5 21 -37 18
-15 -4 29 -19 37 -43 107 -97 289 -15 50 -31 92 -35 92 -4 0 1 -30 12 -67z"/>
<path d="M1490 1681 c0 -25 6 -49 16 -58 14 -15 15 -12 9 33 -10 65 -25 80
-25 25z"/>
<path d="M2072 1685 c0 -16 2 -22 5 -12 2 9 2 23 0 30 -3 6 -5 -1 -5 -18z"/>
<path d="M1540 1668 c0 -16 5 -28 10 -28 13 0 13 20 0 40 -8 12 -10 9 -10 -12z"/>
<path d="M1401 1599 c1 -44 14 -104 21 -94 6 10 -8 104 -17 113 -3 3 -5 -6 -4
-19z"/>
<path d="M2073 1575 c0 -22 2 -30 4 -17 2 12 2 30 0 40 -3 9 -5 -1 -4 -23z"/>
<path d="M1640 1561 c0 -6 4 -13 10 -16 6 -3 7 1 4 9 -7 18 -14 21 -14 7z"/>
<path d="M1028 1555 c-8 -8 0 -113 12 -151 6 -22 9 -24 10 -9 1 17 3 16 16 -8
9 -16 12 -32 8 -35 -4 -4 -9 -1 -12 7 -3 10 -6 10 -12 1 -4 -7 -23 19 -48 67
-23 43 -41 74 -41 68 -1 -5 15 -38 33 -73 19 -34 31 -64 27 -66 -18 -10 -73 8
-81 28 -5 11 -9 16 -9 9 -1 -6 -8 -19 -17 -27 -14 -15 -14 -16 5 -16 11 0 23
-5 27 -11 5 -8 8 -8 14 0 8 15 89 -1 100 -19 6 -9 9 -9 13 1 4 11 9 10 21 -5
29 -36 19 9 -16 70 -21 38 -33 76 -37 116 -3 33 -9 57 -13 53z"/>
<path d="M2063 1450 c0 -47 2 -66 4 -42 2 23 2 61 0 85 -2 23 -4 4 -4 -43z"/>
<path d="M791 1504 c0 -11 3 -14 6 -6 3 7 2 16 -1 19 -3 4 -6 -2 -5 -13z"/>
<path d="M912 1490 c0 -19 2 -27 5 -17 2 9 2 25 0 35 -3 9 -5 1 -5 -18z"/>
<path d="M1340 1490 c0 -19 5 -42 10 -50 11 -17 13 -9 10 35 -3 44 -20 56 -20
15z"/>
<path d="M856 1490 c8 -31 55 -113 61 -106 3 3 -4 18 -15 33 -11 16 -27 44
-36 63 -10 22 -13 25 -10 10z"/>
<path d="M801 1475 c1 -19 18 -51 18 -35 0 8 -4 22 -9 30 -5 8 -9 11 -9 5z"/>
<path d="M747 1415 c3 -33 7 -62 9 -64 9 -10 3 95 -6 109 -6 9 -7 -6 -3 -45z"/>
<path d="M922 1430 c0 -14 2 -19 5 -12 2 6 2 18 0 25 -3 6 -5 1 -5 -13z"/>
<path d="M1992 1430 c0 -14 2 -19 5 -12 2 6 2 18 0 25 -3 6 -5 1 -5 -13z"/>
<path d="M1084 1414 c3 -9 6 -21 6 -29 0 -7 9 -15 19 -18 18 -4 18 -3 -1 29
-21 35 -35 46 -24 18z"/>
<path d="M1871 1394 c0 -11 3 -14 6 -6 3 7 2 16 -1 19 -3 4 -6 -2 -5 -13z"/>
<path d="M1563 1383 c9 -2 25 -2 35 0 9 3 1 5 -18 5 -19 0 -27 -2 -17 -5z"/>
<path d="M1410 1364 c0 -8 5 -12 10 -9 6 4 8 11 5 16 -9 14 -15 11 -15 -7z"/>
<path d="M1466 1371 c-3 -4 6 -6 19 -3 14 2 25 6 25 8 0 8 -39 4 -44 -5z"/>
<path d="M1992 1275 c-1 -60 -4 -128 -7 -150 -4 -35 -4 -36 4 -10 5 17 13 41
19 55 10 24 11 24 12 -10 1 -28 3 -31 9 -15 4 11 5 45 1 75 l-7 55 -9 -35 c-8
-31 -10 -24 -15 55 l-5 90 -2 -110z"/>
<path d="M820 1360 c-12 -7 -10 -9 8 -7 12 0 22 5 22 9 0 11 -12 10 -30 -2z"/>
<path d="M1333 1344 c-3 -7 -3 -19 0 -26 4 -8 6 -6 6 5 1 9 8 17 16 17 8 0 15
4 15 8 0 14 -31 10 -37 -4z"/>
<path d="M1483 1322 c-30 -7 -81 -57 -70 -68 3 -3 10 4 17 15 15 29 28 26 36
-6 10 -40 14 -45 29 -33 21 18 37 3 24 -21 -13 -25 -9 -30 18 -23 11 3 26 17
32 30 14 31 14 34 0 34 -7 0 -17 8 -24 17 -35 48 44 61 93 15 29 -27 30 -28
52 -10 22 18 22 18 2 18 -11 0 -28 8 -38 17 -18 19 -113 27 -171 15z"/>
<path d="M833 1313 c-13 -2 -23 -9 -23 -15 0 -6 -11 -8 -24 -6 -18 4 -22 1
-19 -13 3 -10 14 -25 24 -35 18 -16 19 -16 19 1 0 19 27 44 48 45 6 0 12 -6
12 -14 0 -8 4 -26 10 -41 8 -22 13 -24 30 -15 17 9 20 8 20 -8 0 -10 -5 -23
-12 -30 -9 -9 -5 -12 20 -12 26 0 35 5 42 25 8 20 6 29 -11 46 -11 11 -18 26
-16 32 6 19 46 20 73 2 24 -16 24 -15 12 5 -21 33 -120 49 -205 33z"/>
<path d="M1883 1250 c0 -41 2 -58 4 -37 2 20 2 54 0 75 -2 20 -4 3 -4 -38z"/>
<path d="M1187 1263 c10 -18 20 -28 22 -22 2 6 -6 21 -19 33 l-21 21 18 -32z"/>
<path d="M1790 1288 c0 -3 7 -21 15 -39 10 -24 14 -28 14 -14 0 11 -6 29 -14
39 -8 11 -15 17 -15 14z"/>
<path d="M2051 1244 c0 -11 3 -14 6 -6 3 7 2 16 -1 19 -3 4 -6 -2 -5 -13z"/>
<path d="M2041 1204 c0 -11 3 -14 6 -6 3 7 2 16 -1 19 -3 4 -6 -2 -5 -13z"/>
<path d="M712 1139 c14 -24 28 -42 31 -39 2 3 23 -12 46 -32 58 -54 61 -47 5
15 -26 28 -51 51 -56 49 -5 -1 -8 6 -6 15 2 10 -1 18 -7 18 -5 0 -17 4 -25 10
-8 5 -3 -10 12 -36z"/>
<path d="M1871 1135 c-1 -11 -12 -49 -25 -85 -38 -106 -39 -107 -22 -80 l15
25 1 -25 c0 -14 -9 -57 -19 -95 -11 -38 -18 -72 -15 -74 10 -11 34 74 39 145
4 43 13 100 22 126 8 26 12 56 10 65 -4 15 -5 15 -6 -2z"/>
<path d="M1912 1058 c-6 -18 -17 -50 -26 -70 -9 -21 -14 -38 -11 -38 3 0 11
15 19 33 11 25 15 28 16 12 2 -11 6 5 10 35 10 64 6 77 -8 28z"/>
<path d="M818 997 c23 -24 39 -47 35 -52 -5 -4 -2 -5 5 -1 6 4 12 3 12 -2 0
-6 8 -13 18 -16 9 -4 -10 20 -43 53 -33 34 -62 61 -64 61 -3 0 14 -19 37 -43z"/>
<path d="M1190 981 c0 -11 5 -23 10 -26 6 -4 10 5 10 19 0 14 -4 26 -10 26 -5
0 -10 -9 -10 -19z"/>
<path d="M815 878 c44 -46 80 -84 81 -86 1 -2 14 -5 27 -6 23 -3 19 4 -36 65
-34 37 -63 66 -66 64 -2 -3 2 -13 10 -22 7 -10 -7 1 -32 25 -77 73 -66 46 16
-40z"/>
<path d="M1790 920 c-6 -11 -8 -20 -6 -20 3 0 10 9 16 20 6 11 8 20 6 20 -3 0
-10 -9 -16 -20z"/>
<path d="M1856 925 c-9 -26 -7 -32 5 -12 6 10 9 21 6 23 -2 3 -7 -2 -11 -11z"/>
<path d="M1901 924 c0 -11 3 -14 6 -6 3 7 2 16 -1 19 -3 4 -6 -2 -5 -13z"/>
<path d="M1626 907 c-11 -8 -17 -20 -14 -27 2 -8 10 -3 21 14 20 30 19 32 -7
13z"/>
<path d="M1901 860 c0 -29 1 -32 10 -17 7 11 7 23 0 35 -9 14 -10 11 -10 -18z"/>
<path d="M1569 827 c-14 -19 -23 -42 -21 -55 l3 -22 19 22 19 23 1 -30 c0 -22
3 -26 10 -15 7 12 5 98 -3 106 -2 2 -14 -11 -28 -29z m11 -22 c-7 -9 -15 -13
-18 -10 -3 2 1 11 8 20 7 9 15 13 18 10 3 -2 -1 -11 -8 -20z"/>
<path d="M1701 835 c-5 -23 -8 -75 -6 -75 2 0 14 15 26 33 14 19 17 27 7 19
-14 -11 -17 -10 -21 10 -2 13 -5 19 -6 13z"/>
<path d="M820 778 c0 -9 7 -19 16 -22 15 -6 15 -4 3 11 -7 10 -15 20 -16 22
-2 2 -3 -3 -3 -11z"/>
<path d="M873 772 c-8 -5 -9 -13 -3 -22 14 -21 12 -32 -2 -24 -7 4 3 -9 21
-29 42 -45 49 -47 20 -7 -12 16 -22 43 -22 60 0 16 -1 30 -1 30 -1 0 -6 -4
-13 -8z"/>
<path d="M970 751 c11 -40 22 -49 125 -101 85 -44 84 -40 -10 29 -33 24 -75
57 -92 74 l-33 31 10 -33z"/>
<path d="M1644 758 l-19 -23 23 19 c21 18 27 26 19 26 -2 0 -12 -10 -23 -22z"/>
<path d="M1502 710 c0 -19 2 -27 5 -17 2 9 2 25 0 35 -3 9 -5 1 -5 -18z"/>
<path d="M1567 693 c-4 -3 -7 -11 -7 -17 0 -6 5 -5 12 2 6 6 9 14 7 17 -3 3
-9 2 -12 -2z"/>
<path d="M810 676 c0 -2 8 -10 18 -17 15 -13 16 -12 3 4 -13 16 -21 21 -21 13z"/>
<path d="M860 615 c27 -29 37 -27 20 4 -6 12 -18 21 -27 21 -13 0 -12 -5 7
-25z"/>
<path d="M982 610 c0 -14 2 -19 5 -12 2 6 2 18 0 25 -3 6 -5 1 -5 -13z"/>
<path d="M945 469 c-4 -6 -5 -12 -2 -15 2 -3 7 2 10 11 7 17 1 20 -8 4z"/>
<path d="M2205 10 c-4 -6 6 -10 22 -10 22 0 25 2 13 10 -19 12 -27 12 -35 0z"/>
<path d="M248 3 c7 -3 16 -2 19 1 4 3 -2 6 -13 5 -11 0 -14 -3 -6 -6z"/>
</g>
</svg>
